<svg xmlns="http://www.w3.org/2000/svg" viewBox="0 0 800 240">
  <defs>
    <!-- Main title gradient - vibrant for dark -->
    <linearGradient id="title-grad-dark" x1="0%" y1="0%" x2="100%" y2="100%">
      <stop offset="0%" style="stop-color:#818CF8"/>
      <stop offset="25%" style="stop-color:#A78BFA"/>
      <stop offset="50%" style="stop-color:#F472B6"/>
      <stop offset="75%" style="stop-color:#FBBF24"/>
      <stop offset="100%" style="stop-color:#34D399"/>
    </linearGradient>

    <!-- Accent gradients -->
    <linearGradient id="accent-left-dark" x1="0%" y1="0%" x2="100%" y2="100%">
      <stop offset="0%" style="stop-color:#818CF8"/>
      <stop offset="100%" style="stop-color:#A78BFA"/>
    </linearGradient>
    <linearGradient id="accent-right-dark" x1="0%" y1="0%" x2="100%" y2="100%">
      <stop offset="0%" style="stop-color:#F472B6"/>
      <stop offset="100%" style="stop-color:#FB7185"/>
    </linearGradient>
    <linearGradient id="rainbow-dark" x1="0%" y1="0%" x2="100%" y2="0%">
      <stop offset="0%" style="stop-color:#818CF8"/>
      <stop offset="50%" style="stop-color:#F472B6"/>
      <stop offset="100%" style="stop-color:#FBBF24"/>
    </linearGradient>

    <!-- Background gradient -->
    <radialGradient id="bg-radial-dark" cx="50%" cy="50%" r="70%">
      <stop offset="0%" style="stop-color:#161B22"/>
      <stop offset="100%" style="stop-color:#0D1117"/>
    </radialGradient>

    <!-- Glow filters - stronger for dark -->
    <filter id="glow-dark" x="-50%" y="-50%" width="200%" height="200%">
      <feGaussianBlur stdDeviation="5" result="coloredBlur"/>
      <feMerge>
        <feMergeNode in="coloredBlur"/>
        <feMergeNode in="SourceGraphic"/>
      </feMerge>
    </filter>
    <filter id="glow-strong-dark" x="-100%" y="-100%" width="300%" height="300%">
      <feGaussianBlur stdDeviation="10" result="coloredBlur"/>
      <feMerge>
        <feMergeNode in="coloredBlur"/>
        <feMergeNode in="SourceGraphic"/>
      </feMerge>
    </filter>
    <filter id="shadow-dark" x="-20%" y="-20%" width="140%" height="140%">
      <feDropShadow dx="0" dy="4" stdDeviation="8" flood-color="#818CF8" flood-opacity="0.4"/>
    </filter>

    <!-- Patterns -->
    <pattern id="grid-dark" width="30" height="30" patternUnits="userSpaceOnUse">
      <path d="M 30 0 L 0 0 0 30" fill="none" stroke="#21262D" stroke-width="0.5"/>
    </pattern>
    <pattern id="dots-dark" width="15" height="15" patternUnits="userSpaceOnUse">
      <circle cx="7.5" cy="7.5" r="1" fill="#818CF8" opacity="0.1"/>
    </pattern>
    <pattern id="hexgrid-dark" width="28" height="49" patternUnits="userSpaceOnUse">
      <path d="M14,0 L28,8 L28,24 L14,32 L0,24 L0,8 Z M14,33 L28,41 L28,49 M14,33 L0,41 L0,49" fill="none" stroke="#21262D" stroke-width="0.4"/>
    </pattern>

    <!-- Orb gradients - glowing for dark -->
    <radialGradient id="orb-purple-dark" cx="30%" cy="30%">
      <stop offset="0%" style="stop-color:#7C3AED"/>
      <stop offset="100%" style="stop-color:#7C3AED;stop-opacity:0"/>
    </radialGradient>
    <radialGradient id="orb-pink-dark" cx="30%" cy="30%">
      <stop offset="0%" style="stop-color:#EC4899"/>
      <stop offset="100%" style="stop-color:#EC4899;stop-opacity:0"/>
    </radialGradient>
    <radialGradient id="orb-blue-dark" cx="30%" cy="30%">
      <stop offset="0%" style="stop-color:#6366F1"/>
      <stop offset="100%" style="stop-color:#6366F1;stop-opacity:0"/>
    </radialGradient>
  </defs>

  <!-- Background layers -->
  <rect width="800" height="240" fill="url(#bg-radial-dark)"/>
  <rect width="800" height="240" fill="url(#hexgrid-dark)" opacity="0.6"/>
  <rect width="800" height="240" fill="url(#dots-dark)" opacity="0.6"/>

  <!-- Large glowing orbs - more visible in dark -->
  <circle cx="80" cy="80" r="100" fill="url(#orb-purple-dark)" opacity="0.15"/>
  <circle cx="720" cy="160" r="120" fill="url(#orb-pink-dark)" opacity="0.12"/>
  <circle cx="400" cy="280" r="180" fill="url(#orb-blue-dark)" opacity="0.1"/>
  <circle cx="650" cy="40" r="60" fill="url(#orb-purple-dark)" opacity="0.12"/>
  <circle cx="150" cy="200" r="70" fill="url(#orb-pink-dark)" opacity="0.1"/>

  <!-- Floating binary/code snippets -->
  <g font-family="Monaco, monospace" font-size="8" fill="#818CF8" opacity="0.2">
    <text x="20" y="30">SELECT * FROM</text>
    <text x="700" y="25">WHERE id = :id</text>
    <text x="50" y="220">ORDER BY created_at</text>
    <text x="680" y="230">LIMIT 100</text>
    <text x="300" y="20">WITH cte AS (...)</text>
    <text x="500" y="235">GROUP BY category</text>
  </g>

  <!-- Data flow curves - brighter for dark -->
  <g stroke-width="2" fill="none" opacity="0.25">
    <path d="M 0 120 Q 100 80 200 100 T 350 90" stroke="url(#accent-left-dark)"/>
    <path d="M 800 120 Q 700 80 600 100 T 450 90" stroke="url(#accent-right-dark)"/>
    <path d="M 0 180 Q 150 160 250 170 T 380 150" stroke="url(#accent-left-dark)" stroke-dasharray="5 5"/>
    <path d="M 800 180 Q 650 160 550 170 T 420 150" stroke="url(#accent-right-dark)" stroke-dasharray="5 5"/>
  </g>

  <!-- Sparkles and stars - brighter -->
  <g fill="#FBBF24">
    <polygon points="100,50 102,56 108,56 103,60 105,66 100,62 95,66 97,60 92,56 98,56" opacity="0.6"/>
    <polygon points="700,45 701,48 704,48 702,50 703,53 700,51 697,53 698,50 696,48 699,48" opacity="0.5"/>
    <polygon points="180,180 181,183 184,183 182,185 183,188 180,186 177,188 178,185 176,183 179,183" opacity="0.45"/>
  </g>
  <g fill="#F472B6">
    <polygon points="620,180 621,183 624,183 622,185 623,188 620,186 617,188 618,185 616,183 619,183" opacity="0.5"/>
    <polygon points="750,100 752,106 758,106 753,110 755,116 750,112 745,116 747,110 742,106 748,106" opacity="0.4"/>
  </g>
  <g fill="#818CF8">
    <polygon points="50,140 51,143 54,143 52,145 53,148 50,146 47,148 48,145 46,143 49,143" opacity="0.6"/>
    <polygon points="350,30 351,33 354,33 352,35 353,38 350,36 347,38 348,35 346,33 349,33" opacity="0.5"/>
  </g>

  <!-- Floating SQL keywords with glow -->
  <g font-family="Monaco, 'Courier New', monospace">
    <text x="45" y="65" font-size="14" fill="#818CF8" opacity="0.6" font-weight="700" filter="url(#glow-dark)">SELECT</text>
    <text x="30" y="105" font-size="12" fill="#A78BFA" opacity="0.4">FROM</text>
    <text x="55" y="145" font-size="13" fill="#818CF8" opacity="0.35" font-weight="600">WHERE</text>
    <text x="25" y="185" font-size="11" fill="#F472B6" opacity="0.4">JOIN</text>

    <text x="705" y="60" font-size="12" fill="#A78BFA" opacity="0.4">WITH</text>
    <text x="725" y="100" font-size="14" fill="#818CF8" opacity="0.6" font-weight="700" filter="url(#glow-dark)">CTE</text>
    <text x="670" y="140" font-size="11" fill="#F472B6" opacity="0.35">ORDER BY</text>
    <text x="710" y="180" font-size="12" fill="#A78BFA" opacity="0.4">GROUP</text>
  </g>

  <!-- Database cylinders with glow -->
  <g transform="translate(130, 85)" filter="url(#glow-dark)">
    <g opacity="0.35">
      <ellipse cx="0" cy="0" rx="25" ry="10" fill="#1E1B4B" stroke="#818CF8" stroke-width="2"/>
      <path d="M-25,0 L-25,35 A25,10 0 0,0 25,35 L25,0" fill="#1E1B4B" stroke="#818CF8" stroke-width="2"/>
      <ellipse cx="0" cy="17" rx="25" ry="10" fill="none" stroke="#818CF8" stroke-width="1" stroke-dasharray="4 3"/>
      <ellipse cx="0" cy="35" rx="25" ry="10" fill="#1E1B4B" stroke="#818CF8" stroke-width="2"/>
    </g>
  </g>
  <g transform="translate(670, 90)" filter="url(#glow-dark)">
    <g opacity="0.35">
      <ellipse cx="0" cy="0" rx="23" ry="9" fill="#4A1D3D" stroke="#F472B6" stroke-width="2"/>
      <path d="M-23,0 L-23,32 A23,9 0 0,0 23,32 L23,0" fill="#4A1D3D" stroke="#F472B6" stroke-width="2"/>
      <ellipse cx="0" cy="16" rx="23" ry="9" fill="none" stroke="#F472B6" stroke-width="1" stroke-dasharray="4 3"/>
      <ellipse cx="0" cy="32" rx="23" ry="9" fill="#4A1D3D" stroke="#F472B6" stroke-width="2"/>
    </g>
  </g>

  <!-- Table/grid icons -->
  <g transform="translate(195, 165)" opacity="0.3">
    <rect x="-18" y="-14" width="36" height="28" rx="3" fill="#1E1B4B" stroke="#818CF8" stroke-width="1.5"/>
    <line x1="-18" y1="-4" x2="18" y2="-4" stroke="#818CF8" stroke-width="1"/>
    <line x1="-18" y1="6" x2="18" y2="6" stroke="#818CF8" stroke-width="0.5" stroke-dasharray="2 2"/>
    <line x1="-4" y1="-14" x2="-4" y2="14" stroke="#818CF8" stroke-width="1"/>
    <line x1="8" y1="-14" x2="8" y2="14" stroke="#818CF8" stroke-width="0.5" stroke-dasharray="2 2"/>
  </g>
  <g transform="translate(605, 165)" opacity="0.3">
    <rect x="-18" y="-14" width="36" height="28" rx="3" fill="#4A1D3D" stroke="#F472B6" stroke-width="1.5"/>
    <line x1="-18" y1="-4" x2="18" y2="-4" stroke="#F472B6" stroke-width="1"/>
    <line x1="-18" y1="6" x2="18" y2="6" stroke="#F472B6" stroke-width="0.5" stroke-dasharray="2 2"/>
    <line x1="-4" y1="-14" x2="-4" y2="14" stroke="#F472B6" stroke-width="1"/>
  </g>

  <!-- Ruby gem - detailed with facets and glow -->
  <g transform="translate(400, 42)" opacity="0.25">
    <polygon points="0,-28 25,-10 15,22 -15,22 -25,-10" fill="#7F1D1D" stroke="#EF4444" stroke-width="2"/>
    <polygon points="0,-28 25,-10 0,8 -25,-10" fill="#991B1B" stroke="#EF4444" stroke-width="1"/>
    <polygon points="0,8 25,-10 15,22" fill="#B91C1C" stroke="#EF4444" stroke-width="1"/>
    <polygon points="0,8 -25,-10 -15,22" fill="#B91C1C" stroke="#EF4444" stroke-width="1"/>
    <line x1="0" y1="-28" x2="0" y2="22" stroke="#EF4444" stroke-width="1"/>
  </g>

  <!-- Connection dots/nodes - glowing -->
  <g fill="#818CF8">
    <circle cx="250" cy="100" r="4" opacity="0.4"/>
    <circle cx="280" cy="120" r="3" opacity="0.3"/>
    <circle cx="320" cy="105" r="5" opacity="0.35"/>
  </g>
  <g fill="#F472B6">
    <circle cx="550" cy="100" r="4" opacity="0.4"/>
    <circle cx="520" cy="120" r="3" opacity="0.3"/>
    <circle cx="480" cy="105" r="5" opacity="0.35"/>
  </g>

  <!-- Main title with rainbow gradient and strong glow -->
  <text x="400" y="115" font-family="system-ui, -apple-system, 'Segoe UI', Roboto, sans-serif" font-size="62" font-weight="900" fill="url(#title-grad-dark)" text-anchor="middle" filter="url(#glow-strong-dark)">AppQuery</text>

  <!-- Decorative underline -->
  <g transform="translate(400, 128)">
    <rect x="-120" y="0" width="240" height="4" rx="2" fill="url(#rainbow-dark)" opacity="0.7"/>
    <rect x="-100" y="6" width="200" height="2" rx="1" fill="url(#rainbow-dark)" opacity="0.4"/>
  </g>

  <!-- Tagline -->
  <text x="400" y="158" font-family="system-ui, -apple-system, 'Segoe UI', Roboto, sans-serif" font-size="18" fill="#8B949E" text-anchor="middle" letter-spacing="2" font-weight="500">Raw SQL, ergonomically</text>

  <!-- Terminal code block - fancy -->
  <g transform="translate(400, 200)" filter="url(#shadow-dark)">
    <rect x="-250" y="-18" width="500" height="36" rx="18" fill="#21262D" stroke="#30363D" stroke-width="1"/>
    <!-- Window controls -->
    <circle cx="-225" cy="0" r="6" fill="#F85149"/>
    <circle cx="-206" cy="0" r="6" fill="#D29922"/>
    <circle cx="-187" cy="0" r="6" fill="#3FB950"/>
    <!-- Separator -->
    <line x1="-170" y1="-10" x2="-170" y2="10" stroke="#30363D" stroke-width="1"/>
    <!-- Code with syntax highlighting -->
    <text x="-155" y="5" font-family="Monaco, 'Courier New', monospace" font-size="12">
      <tspan fill="#A78BFA">AppQuery</tspan><tspan fill="#8B949E">[</tspan><tspan fill="#7EE787">:sales</tspan><tspan fill="#8B949E">].</tspan><tspan fill="#79C0FF">select_all</tspan><tspan fill="#8B949E">(</tspan><tspan fill="#FF7B72">binds:</tspan><tspan fill="#8B949E"> {</tspan><tspan fill="#7EE787">year:</tspan><tspan fill="#FFA657"> 2026</tspan><tspan fill="#8B949E">})</tspan>
    </text>
  </g>

  <!-- Output arrow with results hint -->
  <g transform="translate(400, 228)">
    <path d="M-30,0 L0,10 L30,0" stroke="#3FB950" stroke-width="2.5" fill="none" opacity="0.6"/>
    <text x="0" y="12" font-family="Monaco, monospace" font-size="8" fill="#3FB950" text-anchor="middle" opacity="0.6">[{revenue: 42000, ...}]</text>
  </g>
</svg>
